HIERARCHY
ROOT Hips
{
 OFFSET 0.000000 0.000000 0.000000
 CHANNELS 6 Xposition Yposition Zposition Yrotation Xrotation Zrotation
 JOINT Chest
 {
  OFFSET 0.000000 9.910571 -0.011835
  CHANNELS 3 Yrotation Xrotation Zrotation
  JOINT Chest2
  {
   OFFSET 0.000000 10.789473 0.021497
   CHANNELS 3 Yrotation Xrotation Zrotation
   JOINT Chest3
   {
    OFFSET 0.000000 9.748205 0.000000
    CHANNELS 3 Yrotation Xrotation Zrotation
    JOINT Chest4
    {
     OFFSET 0.000000 9.748205 0.000000
     CHANNELS 3 Yrotation Xrotation Zrotation
     JOINT Neck
     {
      OFFSET 0.000000 13.998479 0.000000
      CHANNELS 3 Yrotation Xrotation Zrotation
      JOINT Head
      {
       OFFSET 0.000000 9.082285 0.051121
       CHANNELS 3 Yrotation Xrotation Zrotation
       End Site
       {
        OFFSET 0.000000 17.246134 0.026702
       }
      }
     }
     JOINT RightCollar
     {
      OFFSET -3.284495 7.824262 0.000000
      CHANNELS 3 Yrotation Xrotation Zrotation
      JOINT RightShoulder
      {
       OFFSET -15.534540 0.000000 0.000000
       CHANNELS 3 Yrotation Xrotation Zrotation
       JOINT RightElbow
       {
        OFFSET 0.000000 -28.251216 0.000000
        CHANNELS 3 Yrotation Xrotation Zrotation
        JOINT RightWrist
        {
         OFFSET 0.000000 -23.418114 0.012537
         CHANNELS 3 Yrotation Xrotation Zrotation
         End Site
         {
          OFFSET 0.000000 -17.723959 0.000000
         }
        }
       }
      }
     }
     JOINT LeftCollar
     {
      OFFSET 3.284495 7.824262 0.000000
      CHANNELS 3 Yrotation Xrotation Zrotation
      JOINT LeftShoulder
      {
       OFFSET 15.534540 0.000000 0.000000
       CHANNELS 3 Yrotation Xrotation Zrotation
       JOINT LeftElbow
       {
        OFFSET 0.000000 -28.251216 0.000000
        CHANNELS 3 Yrotation Xrotation Zrotation
        JOINT LeftWrist
        {
         OFFSET 0.000000 -23.418114 0.012537
         CHANNELS 3 Yrotation Xrotation Zrotation
         End Site
         {
          OFFSET 0.000000 -17.723959 0.000000
         }
        }
       }
      }
     }
    }
   }
  }
 }
 JOINT RightHip
 {
  OFFSET -8.142657 0.057990 0.005917
  CHANNELS 3 Yrotation Xrotation Zrotation
  JOINT RightKnee
  {
   OFFSET 0.000000 -49.716894 0.008478
   CHANNELS 3 Yrotation Xrotation Zrotation
   JOINT RightAnkle
   {
    OFFSET 0.000000 -43.994153 0.004166
    CHANNELS 3 Yrotation Xrotation Zrotation
    JOINT RightToe
    {
     OFFSET 0.000000 -7.619154 17.822051
     CHANNELS 3 Yrotation Xrotation Zrotation
     End Site
     {
      OFFSET 0.000000 -1.595627 7.159905
     }
    }
   }
  }
 }
 JOINT LeftHip
 {
  OFFSET 8.142657 0.057990 0.005917
  CHANNELS 3 Yrotation Xrotation Zrotation
  JOINT LeftKnee
  {
   OFFSET 0.000000 -49.716894 0.008478
   CHANNELS 3 Yrotation Xrotation Zrotation
   JOINT LeftAnkle
   {
    OFFSET 0.000000 -43.994153 0.004166
    CHANNELS 3 Yrotation Xrotation Zrotation
    JOINT LeftToe
    {
     OFFSET 0.000000 -7.619154 17.822051
     CHANNELS 3 Yrotation Xrotation Zrotation
     End Site
     {
      OFFSET 0.000000 -1.595627 7.159905
     }
    }
   }
  }
 }
}
MOTION
Frames: 9
Frame Time: 0.008333
245.308743 56.679035 263.963187 -53.391329 -55.825120 2.352556 -2.067971 21.379580 -1.629090 -0.764025 9.495332 -0.684703 -0.764025 9.495332 -0.684703 -0.560975 7.122376 -0.500378 -7.068788 18.570775 -1.710665 -12.417353 -1.571838 -0.845135 -1.223362 9.524188 12.599126 24.644826 -18.498223 -24.884884 -4.712377 -43.127646 34.962028 2.158875 -9.796286 -9.105584 -1.210273 11.194352 -9.995685 -8.345039 -19.500751 17.871840 18.561562 -45.556240 -35.670238 -0.251201 2.860868 -5.092943 -7.576509 -31.259539 -9.330041 -92.852934 73.708027 -108.211086 -3.087672 -4.802390 6.902023 0.040561 0.278849 0.020461 4.395873 -31.833209 11.985740 77.236999 85.132885 79.768811 -0.984639 1.049184 -1.144060 -0.072807 -0.196581 -0.022332
245.307761 56.680052 263.963045 -53.396243 -55.828831 2.358145 -2.062482 21.379910 -1.632060 -0.761549 9.495678 -0.686277 -0.761549 9.495678 -0.686277 -0.559097 7.122634 -0.501593 -7.055497 18.582062 -1.713211 -12.391677 -1.551909 -0.854986 -1.227180 9.518823 12.601418 24.649184 -18.498287 -24.879354 -4.715988 -43.078923 34.989745 2.188269 -9.879672 -9.100521 -1.213510 11.205797 -9.989445 -8.348440 -19.512961 17.871140 18.555602 -45.552126 -35.663458 -0.259577 2.855450 -5.088333 -7.580905 -31.257534 -9.328095 -92.852512 73.704829 -108.215407 -3.087101 -4.803055 6.899008 0.041724 0.277370 0.020780 4.403528 -31.830079 11.982986 77.250843 85.133046 79.784964 -0.982021 1.047684 -1.142673 -0.075042 -0.198112 -0.024275
245.306176 56.679344 263.960697 -53.401338 -55.825404 2.359881 -2.053836 21.379869 -1.630979 -0.758703 9.496070 -0.687776 -0.758703 9.496070 -0.687776 -0.556943 7.122927 -0.502759 -7.043249 18.590612 -1.713129 -12.368884 -1.536757 -0.859463 -1.239547 9.509172 12.610115 24.666055 -18.489137 -24.884865 -4.729525 -43.041709 35.022643 2.228712 -9.962535 -9.109951 -1.221995 11.213861 -9.984384 -8.343847 -19.530424 17.874790 18.501805 -45.553925 -35.674286 -0.232614 2.838701 -5.031590 -7.581202 -31.259733 -9.308603 -92.856864 73.692948 -108.221919 -3.109440 -4.804213 6.894927 0.058141 0.278525 0.027537 4.401830 -31.832717 11.985075 77.241270 85.133061 79.774360 -0.976759 1.046564 -1.142531 -0.081768 -0.197388 -0.027879
245.304543 56.680796 263.960053 -53.404886 -55.832990 2.364736 -2.053077 21.385717 -1.635474 -0.757937 9.497402 -0.689348 -0.757937 9.497402 -0.689348 -0.556343 7.123927 -0.503946 -7.028640 18.598730 -1.715469 -12.340989 -1.522747 -0.869088 -1.239497 9.504035 12.610117 24.681074 -18.483509 -24.886777 -4.737921 -43.016153 35.049764 2.246474 -10.037636 -9.125591 -1.215459 11.221919 -9.982913 -8.355213 -19.540311 17.876218 18.482636 -45.559921 -35.656644 -0.233559 2.833423 -5.033683 -7.584843 -31.252846 -9.308005 -92.868554 73.688067 -108.236380 -3.110498 -4.811431 6.896057 0.060271 0.279497 0.024939 4.401111 -31.821050 11.985881 77.236306 85.130592 79.764994 -0.978964 1.040378 -1.139839 -0.084366 -0.194597 -0.031049
245.304506 56.680418 263.959879 -53.410118 -55.828938 2.377081 -2.053678 21.386758 -1.645304 -0.757243 9.497148 -0.691559 -0.757243 9.497148 -0.691559 -0.555790 7.123738 -0.505612 -7.015783 18.606223 -1.718374 -12.316154 -1.509841 -0.879132 -1.229977 9.496619 12.616500 24.676309 -18.480621 -24.897693 -4.733110 -42.994094 35.075026 2.264385 -10.126709 -9.142628 -1.210665 11.224729 -9.984998 -8.362558 -19.549977 17.878883 18.410048 -45.568299 -35.657680 -0.212852 2.805386 -4.986244 -7.582967 -31.257632 -9.316310 -92.879296 73.703042 -108.249159 -3.123062 -4.815900 6.898117 0.061843 0.282581 0.022073 4.405110 -31.820248 11.967957 77.198408 85.129771 79.729248 -0.963822 1.036266 -1.140573 -0.093442 -0.190853 -0.037249
245.305075 56.680251 263.959373 -53.404798 -55.826146 2.372481 -2.050668 21.386293 -1.646539 -0.755661 9.497302 -0.691896 -0.755661 9.497302 -0.691896 -0.554600 7.123853 -0.505888 -7.002597 18.614426 -1.720689 -12.290880 -1.495586 -0.888257 -1.235828 9.490147 12.622393 24.684786 -18.477692 -24.904093 -4.736521 -42.980365 35.094185 2.278177 -10.206457 -9.162424 -1.210597 11.228137 -9.983693 -8.365100 -19.555102 17.885590 18.374809 -45.567035 -35.647329 -0.228167 2.761745 -4.988534 -7.595524 -31.262527 -9.312940 -92.883791 73.704896 -108.256743 -3.125660 -4.818872 6.897962 0.063837 0.282604 0.019693 4.403418 -31.823360 11.966500 77.170416 85.128952 79.701721 -0.964615 1.038014 -1.139383 -0.092324 -0.191428 -0.038154
245.302616 56.682001 263.956497 -53.400316 -55.828938 2.368222 -2.048461 21.390329 -1.641755 -0.756115 9.496960 -0.691684 -0.756115 9.496960 -0.691684 -0.554944 7.123597 -0.505723 -6.988327 18.621360 -1.725956 -12.262712 -1.483994 -0.903025 -1.234887 9.493115 12.619336 24.683909 -18.486590 -24.909108 -4.729610 -42.962338 35.104290 2.292277 -10.280987 -9.157318 -1.203545 11.230525 -9.985646 -8.374667 -19.556651 17.888264 18.292948 -45.570816 -35.640589 -0.226875 2.689664 -4.961995 -7.601063 -31.257207 -9.310140 -92.873942 73.694358 -108.244363 -3.118990 -4.824147 6.897985 0.066580 0.284448 0.018644 4.397614 -31.815284 11.970008 77.103622 85.124579 79.636999 -0.972093 1.034064 -1.147189 -0.085203 -0.186803 -0.036198
245.301002 56.683171 263.954572 -53.399561 -55.830472 2.369464 -2.048609 21.391232 -1.641267 -0.754097 9.497138 -0.690612 -0.754097 9.497138 -0.690612 -0.553451 7.123726 -0.504952 -6.979215 18.627814 -1.733673 -12.243231 -1.473213 -0.920587 -1.240873 9.492141 12.621068 24.680014 -18.484079 -24.917670 -4.732350 -42.956582 35.123515 2.346128 -10.351436 -9.136673 -1.209982 11.230147 -9.991591 -8.377724 -19.555011 17.894899 18.206371 -45.588489 -35.587042 -0.246518 2.593454 -4.992501 -7.611691 -31.256756 -9.310774 -92.884520 73.693717 -108.258962 -3.112014 -4.834359 6.897624 0.063254 0.286832 0.016920 4.400752 -31.812585 11.966601 77.068488 85.122918 79.605799 -0.973276 1.036297 -1.146458 -0.084843 -0.189015 -0.038434
245.298024 56.685632 263.952049 -53.411893 -55.833623 2.374581 -2.048581 21.398736 -1.639274 -0.752790 9.498788 -0.689606 -0.752790 9.498788 -0.689606 -0.552486 7.124961 -0.504218 -6.964806 18.632459 -1.739336 -12.214773 -1.465892 -0.935931 -1.242066 9.482256 12.615847 24.668421 -18.487165 -24.914076 -4.701778 -42.957162 35.130965 2.403793 -10.411291 -9.121628 -1.201346 11.223974 -9.996975 -8.385744 -19.554852 17.899702 18.044262 -45.616653 -35.516424 -0.258734 2.457092 -5.001068 -7.617360 -31.250040 -9.307803 -92.868771 73.688550 -108.240582 -3.094094 -4.846432 6.891567 0.058467 0.293017 0.015522 4.398107 -31.805305 11.979771 77.047871 85.122956 79.580998 -0.976342 1.034425 -1.148072 -0.081356 -0.189654 -0.038064
